<?xml version="1.0" encoding="UTF-8"?>
<svg id="_레이어_1" data-name="레이어 1" xmlns="http://www.w3.org/2000/svg" viewBox="0 0 145.39 151.11">
  <path d="m70.47,142.87c-6.33,0-12.68.28-18.98-.17-1.96-.14-3.77-2.26-5.65-3.47,1.53-1.64,2.78-3.77,4.65-4.8,2.27-1.25,5.01-1.92,7.62-2.23,4.96-.59,6.3-3.86,6.34-7.99.11-11.82.29-23.66-.15-35.47-.1-2.7-1.92-6.21-4.08-7.81-14.18-10.48-19.34-24.07-15.32-41.17,1.98-8.41,4.16-16.78,6.16-25.19.72-3,2.16-4.35,5.51-4.27,9.49.23,18.99-.06,28.48.22,1.61.05,4.26,1.65,4.59,2.98,2.87,11.77,5.86,23.55,7.75,35.5,2.05,12.92-4.63,22.6-14.39,29.95-4.92,3.7-6.4,7.83-6.23,13.56.28,9.65.07,19.32.08,28.98.01,8.07.73,9.03,8.2,11.15,2.4.68,5,.99,7.13,2.17,1.46.81,3.41,3.2,3.08,4.21-.51,1.57-2.72,3.55-4.31,3.64-6.81.4-13.65.17-20.48.17v.03Zm20.8-106.38c-2.79-.46-5.22-1.44-7.41-1.06-2.39.41-4.56,2.09-6.92,3.27-4.93-4.96-14.82-5-22.73.24-1.13-1.21-2.27-2.44-4.15-4.45-1.22,9.04-3.5,16.95-1.16,25.09.48,1.67.39,4.64,3.87,3.62.2-.06,1.72,2.38,1.57,3.51-.42,3.19,4.25,8.56,7.14,7.53,3.32-1.18,4.2-.38,3.35,2.98-.16.64.49,1.78,1.11,2.27,3.31,2.63,7.02,1.68,9.28-2.05.51-.84,1.67-1.39,2.65-1.81,1.46-.63,3.32-.65,4.48-1.58,12.91-10.39,12.55-23.89,8.94-37.56Zm-40.09-6.56c13.17,5.59,18.29-4.87,25.63-12.95,2.75,4.07,5.55,7.2,7.13,10.86,1.45,3.34,3.06,3.68,6.31,2.37-1.26-4.47-2.28-8.84-3.79-13.03-.41-1.13-2.26-2.42-3.49-2.46-8.14-.22-16.3-.2-24.45-.04-1.2.02-3.11.94-3.44,1.88-1.57,4.5-2.72,9.14-3.91,13.37Zm17.22,55.66v44.61h4.45v-44.61h-4.45Zm-14.5,52.84h33.88c-10.38-5.29-25.33-5.02-33.88,0Zm22.91-114.97c-2.35,2.72-4.07,4.69-6.12,7.07h10.21c-1.48-2.57-2.58-4.47-4.09-7.07Z"/>
  <path d="m61.81,64.33c-1.23-.77-2.48-1.57-3.75-2.33-8.03-4.82-8.7-14.62-1-20.2,1.9-1.38,5.39-1.99,7.57-1.25,4.3,1.45,9.53,1.54,10.95,8.28.54,2.57,6.39,4.03,9.83,6,.94.54,1.88,1.09,2.97,1.72-1.38,2.9-2.5,5.58-3.9,8.11-4.04,7.27-9.08,8.85-16.87,5.47-.89-.38-1.78-1.11-2.65-1.1-4.89.08-4.89.14-3.13-4.69Zm4.84-8.83c1.43-2.74,2.64-5.05,3.85-7.36-2.57-1.32-5.04-2.96-7.75-3.83-1.16-.37-2.84.88-4.62,1.51,2.97,3.37,5.25,5.96,8.53,9.68Zm11.8.74c-4.97-3.2-5.57-2.95-10.5,3.18-1.6,1.99-2.88,3.78.41,5.33,3.31-2.79,6.56-5.53,10.09-8.51Zm2.6,3.65c-2.57,2.08-5.14,4.15-8.26,6.67,6.74,2.03,6.79-3.2,8.26-6.67Z"/>
</svg>