<?xml version="1.0" encoding="UTF-8"?>
<svg id="_레이어_1" data-name="레이어 1" xmlns="http://www.w3.org/2000/svg" viewBox="0 0 155.17 151.11">
  <path d="m29.01,24.8h58.48c.12-.3.25-.6.37-.9-1.33-.56-2.66-1.14-3.99-1.69-3.69-1.5-5.15-4.82-4.21-8.05.49-1.68,4.07-3.7,6.02-3.48,5.31.6,10.48,2.32,16.55,3.79,6.94-5.36,16.61-1.07,15.68,10.11,1.76.15,3.51.29,6.13.51-3.6,4.7-6.68,8.98-10.03,13.04-7.84,9.51-15.5,19.19-23.84,28.25-5.53,6.01-7.24,12.99-7.42,20.52-.3,12.15.02,24.32-.15,36.48-.04,2.88,1.15,4.15,3.56,5.14,5.39,2.2,10.8,4.39,15.99,6.98,1.43.71,2.15,2.84,3.2,4.32-1.52,1.01-3.03,2.88-4.57,2.9-16.15.22-32.31.22-48.47.02-1.57-.02-3.13-1.81-4.69-2.78,1.15-1.58,1.96-3.82,3.51-4.61,5.18-2.62,10.69-4.6,15.93-7.12,1.35-.65,3.1-2.43,3.09-3.68-.07-14.8-.12-29.62-.96-44.39-.23-3.94-2.46-8.28-4.98-11.49-10.38-13.23-21.22-26.09-31.87-39.1-1.02-1.24-1.85-2.64-3.34-4.78Zm67.7,26.93h-17.81c-.27-.52-.53-1.05-.8-1.57,1.15-.85,2.23-2.28,3.45-2.42,3.13-.35,6.39-.57,9.47-.04,8.42,1.46,13.24-2.9,17.04-9.88h-63.53c10.91,13.29,21.38,26.07,32.06,39.08,6.65-8.32,12.96-16.22,20.11-25.17Zm-58.17-22.65l-.64,1.55c1.7.77,3.39,2.21,5.09,2.22,22.32.15,44.64.16,66.95-.01,1.71-.01,3.42-1.62,5.12-2.49-.21-.42-.43-.85-.64-1.27H38.54Zm18,109.21h39.89c-13.35-9.8-26.63-9.76-39.89,0Zm17.9-57.43c0,10.43,0,20.38,0,30.34,0,4.16-.11,8.32.12,12.46.05.85,1.4,1.64,2.15,2.45.6-.8,1.5-1.52,1.71-2.41.3-1.26.08-2.64.09-3.97.11-12.63.22-25.26.31-37.88,0-.29-.24-.58-.41-.98h-3.97Zm24.52-55.64c.64-7.68-7.79-12.55-16.06-9.03,5.53,3.11,10.52,5.92,16.06,9.03Zm9.31,1.49c2.43-2.2,3.85-3.48,5.27-4.77-1.62-1.75-3.23-3.49-4.85-5.24-1.73,1.66-3.72,3.14-4.96,5.11-.25.4,2.37,2.6,4.54,4.9Z"/>
  <path d="m79.54,67.35c-1.44,1.12-2.33,1.81-3.38,2.63-7.32-8.95-14.46-17.68-21.79-26.63,1.02-.93,1.93-1.74,3.14-2.85,7.4,9.02,14.56,17.75,22.03,26.85Z"/>
</svg>