<?xml version="1.0" encoding="UTF-8"?>
<svg id="_레이어_1" data-name="레이어 1" xmlns="http://www.w3.org/2000/svg" viewBox="0 0 149.97 151.11">
  <path d="m85.48,39.54h26.75c0,2.35,0,4.14,0,5.93,0,26.32,0,52.65,0,78.97,0,10.41-6.42,17.92-16.99,18.2-17.65.47-35.32.45-52.97.03-10.64-.25-17.04-7.6-17.04-18.02,0-26.16,0-52.31,0-78.47,0-1.98,0-3.96,0-6.6h33.08c-.88-9.86-1.7-19.06-2.51-28.15,3.86-1.85,4.5-.46,4.71,2.57.49,7.13,1.32,14.23,2.05,21.34.3,2.88,1.58,4.52,4.86,4.13,2.3-.27,4.66-.06,6.99-.06,6.55,0,9.2-3.95,6.83-10.16-1.66-4.35.2-8.78,4.29-10.22,3.9-1.38,8.46.86,9.7,4.75,1.33,4.16-1.15,8.23-5.44,9.83-1.99.74-3.61,2.49-5.39,3.78l1.07,2.16Zm-8.99,62.7c3.86-.6,7.76-2.48,10.46-1.39,7.15,2.87,13.63-.46,20.7-.56v-31.54h-23.69c3.77,3.26,7.96,5.5,11.82,8.22,1.85,1.3,4.54,3.81,4.24,5.2-.5,2.31-2.74,5.31-4.89,6-9.11,2.9-18.47,5.02-27.71,7.53-1.25.34-3.04.99-3.4,1.94-3.97,10.7-7.71,21.49-11.66,32.67,14.6,0,28.56.49,42.47-.17,9.1-.43,13.13-5.82,13.1-14.79,0-1.67,0-3.33,0-5-.02-6.03-1.15-6.62-7.23-4.97-2.94.8-6.16.9-9.24.82-4.27-.11-8.52-.67-12.78-1.04-.15.46-.31.92-.46,1.38-.46-1.12-.91-2.24-1.75-4.29Zm-28.25,9.05c-3.58,2.47-7.12,1.6-10.85.21-5.02-1.87-8,.33-8.01,5.58-.02,7.99,8.97,15.21,16.76,13.35.82-.19,1.87-.95,2.14-1.68,4.05-11.18,7.99-22.41,11.99-33.73-11.18-4.31-17.39-12.25-19.95-23.18-.59-2.51-1.67-3.74-4.38-3.48-2.05.2-4.15.04-6.26.04v39.06c6.92-1.44,17.35.73,18.57,3.82Zm48.88-28.71c-8.6-5.05-15.56-11.36-23.57-13.27-9.2-2.2-19.33-.51-29.1-.51,1.27,12.36,10.22,21.95,21.47,22.54,10.72.56,20.41-3.4,31.2-8.76Zm10.85-38.96c-7.94,0-15.24-.09-22.54.04-2.94.05-5.26,4.25-3.36,6.43,3.6,4.11,4.03,8.51,2.34,13.53h23.56c0-5.28,0-10.1,0-14.92,0-1.49,0-2.97,0-5.08Zm-44.18,13.93c.93-2.48-1.72-12.26-3.65-13.54-.5-.33-1.26-.38-1.9-.38-9.45-.02-18.89-.02-28.5-.02v20.11h8.77c0-2.87-.19-5.36.04-7.82.62-6.83,6.17-9.73,11.95-6.31,4.43,2.62,8.84,5.29,13.29,7.95Zm-34.19,72.38c3.27,5.95,8.11,8.56,13.92,8.64,16.79.24,33.59.18,50.38.03,6.14-.06,11.21-3.64,13.05-8.47-13.03,6.44-62.36,6.5-77.35-.2Zm35.11-65.42c.14-.37.29-.74.43-1.11-6.43-3.88-12.86-7.75-20.16-12.15-.93,2.75-2.09,4.77-2.24,6.86-.41,5.88.24,6.39,6.19,6.4,5.26,0,10.51,0,15.77,0Zm10.48-12.68c-3.31-.14-6.63,2.85-6.5,6.15.14,3.62,2.22,5.84,5.8,6.34,3.28.45,6.56-2.52,6.78-5.87.21-3.27-2.74-6.48-6.07-6.62Zm-10.16-8c1.07,2.29,1.93,4.11,2.65,5.65,2.64-.72,4.76-1.1,6.71-1.9,1.42-.59,2.6-1.74,3.89-2.64l-.75-1.1h-12.5Zm27.39-17.9c-1.96-1.37-3.47-3.14-4.34-2.87-1.32.41-2.19,2.25-3.25,3.48,1.17.95,2.33,2.62,3.51,2.63,1.13,0,2.27-1.71,4.08-3.25Z"/>
</svg>