<?xml version="1.0" encoding="UTF-8"?>
<svg id="_레이어_1" data-name="레이어 1" xmlns="http://www.w3.org/2000/svg" viewBox="0 0 149.97 160.27">
  <path d="m29.4,40.77c-3.64-2.4-5.01-6.81-4.93-11.91.06-3.77,3.77-10.6,6.36-11.47,2.39-.8,11.52,2.5,13.23,5.03,1.57,2.32,2.8,4.87,4.03,7.04,3.25,0,6.54.57,9.5-.16,3.07-.75,6.48-2.12,8.62-4.32,9.11-9.3,18.8-11.66,27.96-6.16,9.17,5.52,12.13,15.3,8.12,27.23.89.69,2.31,1.23,2.69,2.18,2.43,6.14,4.82,12.32,6.85,18.6,1.14,3.52,2.87,3.69,5.47,1.85,2.56-1.82,5.05-3.75,7.53-5.6,13.8,12.34,13.95,48.88.17,63.19-2.19-1.64-4.4-3.34-6.66-4.97-5.41-3.9-10.61-2.62-13.72,2.99-2.33,4.21-4.84,8.37-7.75,12.19-4.8,6.3-11.35,9.68-19.34,9.81-8.49.13-16.98.14-25.47,0-7.59-.13-14.3-3.07-18.59-9.22-17.45-25.04-25.19-51.57-10.93-81,2.37-4.9,4.46-9.93,6.86-15.31Zm-1.7,12.92c.22.52.45,1.05.67,1.57,1.97,0,3.94,0,5.91,0,19.32,0,38.63-.04,57.95.08,1.26,0,2.52,1.21,3.77,1.86-1.18.73-2.31,1.59-3.57,2.13-.71.3-1.64.05-2.47.05-19.48,0-38.97.18-58.45-.13-4.63-.07-6.74,1.43-8.38,5.59-8.06,20.42-.83,55.55,14.93,71.06,4.08,4.02,9.01,6.22,14.78,6.26,7.83.05,15.65.03,23.48.02,7.33,0,13.35-2.91,17.62-8.8,10.54-14.55,16.02-30.86,16.45-48.87.29-12.12-4.98-22.5-9.98-33.33-22.82,0-45.79-.04-68.75.11-1.32,0-2.63,1.56-3.94,2.4Zm86.25,21.68c0,6.07.6,12.92-.17,19.61-.77,6.68-2.9,13.21-4.24,18.97,5.08,1.78,10.03,3.51,15.21,5.33,9.2-12.09,8.06-40.09-.64-49.85-3.23,1.89-6.44,3.77-10.16,5.95Zm-62.11-32.06c-5.29-7.17-10.18-6.33-19.62,3.41h32.11c-.64-5.08-1.25-9.87-1.87-14.73-1.12.94-2.35,1.97-2.47,2.07-4.13-.22-7.01-.37-11.09-.58,6.63,6.55,6.86,7.48,2.93,9.83Zm-21.09-12.63c-.28.12-.56.25-.84.37,1.1,2.54,2.2,5.08,2.8,6.45,3.62-1.27,6.19-1.93,8.52-3.09,1.08-.54,2.43-2.12,2.33-3.08-.13-1.22-1.62-2.3-2.71-3.66-2.62-2.18-5.14-4.26-7.65-6.34-.51.37-1.02.74-1.53,1.11-.31,2.75-.62,5.49-.93,8.24Zm48.62,2.3c-2.02-4.17-3.4-7-5.1-10.51-2.12,2.49-3.66,4.3-5.65,6.62,3.51,1.27,6.38,2.3,10.75,3.88Zm11.64-11.43c-1.29,3.83-2.29,6.82-3.65,10.86,3.77-1.85,6.6-3.23,10.19-4.99-2.31-2.07-4.14-3.72-6.54-5.86Zm-1.91,14.79c4.25,1.42,7.21,2.41,11.19,3.74-.41-3.37-.7-5.73-1.05-8.65-3.52,1.71-6.15,2.99-10.14,4.92Zm-10.97-15.63c1.86,3.75,3.21,6.47,5.08,10.26,1.39-4.14,2.4-7.16,3.65-10.92-3.12.24-5.48.41-8.74.66Zm-.14,16.29c-4.19-1.41-7.2-2.42-10.95-3.68.22,3.12.38,5.45.59,8.54,3.5-1.64,6.25-2.93,10.36-4.86Zm20.27,6.97c-3.58-1.16-6.55-2.12-10.02-3.24,2.99,7.47,5.74,8.41,10.02,3.24Zm-29.26,2.19c8.77,1.63,8.85,1.59,10.07-4.93-3.13,1.53-5.97,2.92-10.07,4.93Z"/>
</svg>