<?xml version="1.0" encoding="UTF-8"?>
<svg id="_레이어_1" data-name="레이어 1" xmlns="http://www.w3.org/2000/svg" viewBox="0 0 184.31 160.27">
  <path d="m40.17,26.12h73.32q-1.02-5.5,4.06-7.23c3.15-1.07,6.47-1.79,9.43-3.24,5.83-2.88,10.58-1.19,15.1,2.69,4.04,3.46,7.95,7.13,12.28,10.18,3.07,2.16,6.75,3.44,10.16,5.12-4.32,9.89-14.02,14.91-25.2,12.6,0,4.41.17,8.71-.03,13-1.21,26.29-2.44,52.57-3.8,78.85-.27,5.3-3.4,8.23-8.76,8.25-24.83.09-49.66.09-74.48,0-5.2-.02-8.25-2.82-8.61-7.81-2.6-36.56-4.82-73.15-3.88-109.84.02-.63.19-1.26.4-2.57Zm84.2,39.44c-2.2,9.2-4.25,18.35-6.65,27.41-.61,2.32-1.77,5.46-3.59,6.34-8.11,3.92-15.03,10.6-24.84,10.79-5.82.12-11.62,1.14-17.43,1.16-2.35.01-5.32-.91-6.97-2.49-13.38-12.75-12.76-29-10.67-45.44.32-2.53,1.69-4.93,2.71-7.77h-13.56c1.24,24.82,2.47,49.43,3.7,73.95h84.9c1.22-23.99,2.42-47.65,3.67-72.4-5.14,3.28-5.72,10.7-11.27,8.45Zm-80.01-14.45c3.39,0,6.24-.26,9.02.06,4.06.48,6.75-.75,8.89-4.43,2.42-4.15,6.38-6.06,11.41-5.66,6.12.49,12.28.58,18.41,1.07,3.08.25,4.95-.53,5.92-3.7,1.05-3.44,3.51-4.57,7.04-3.29,3.69,1.34,7.43,2.52,11.25,3.8q-.28-8.55-7.75-8.56c-15.82,0-31.63,0-47.45,0-5.46,0-10.91,0-16.74,0v20.71Zm12.88,32.15c7.56,1.26,13.71,1.44,19.23,3.41,9.32,3.32,16.44-.54,23.5-5.41,3.22-2.22,4.39-5.23,2.38-8.21-7.21-1.84-14.14-2.68-20.23-5.41-6.66-2.98-13.27-3.76-20.29-3.72-2.92.02-4.47,1.22-4.55,3.96-.14,5.25-.04,10.5-.04,15.38Zm-9.39,51.03c-.13,6.96.68,7.89,6.82,7.89,23.16.02,46.32.01,69.48,0,6.34,0,7.4-1.21,6.87-7.89H47.85ZM118.25,23.15c7.33,5.93,13.53,11.19,19.99,16.11,7.32,5.57,14.02,4.2,19.09-2.97-5.95-4.83-11.72-9.79-17.81-14.32-2.22-1.65-5.32-3.36-7.81-3.09-4.14.45-8.11,2.48-13.45,4.28Zm-58.99,65.19c-.5.42-1.01.85-1.51,1.27,2.01,3.88,3.72,7.96,6.14,11.57,1.59,2.37,4.18,5.71,6.35,5.74,8.13.08,16.27-1.02,25.43-1.76-9.58-13.7-22.69-15.94-36.4-16.82Zm42.17-20c.23-2.49.29-3.98.51-5.44.96-6.37.02-7.55-6.4-7.58-9.99-.04-19.98.04-29.97-.05-2.86-.03-4.83.56-4.78,2.63,13.71,3.52,26.92,6.91,40.65,10.44Zm10.8,26.23c3.28-8.85,7-17.55,6.28-27.22-.12-1.67-1.35-3.91-2.73-4.7-2.51-1.43-5.53-1.97-8.79-3.03-3.08,12.65,4.04,23.32,5.24,34.95Zm21.61-44.12c-.05-.47-.1-.95-.15-1.42-10.32-3.3-20.64-6.6-31.45-10.06-.63,2.17-1.37,3.99-1.66,5.89-.87,5.63-.28,6.23,5.46,6.24,7.81.01,15.62.04,23.43-.02,1.46-.01,2.91-.41,4.37-.63Zm-34.41,51.83c9.42-4.21,10.38-7.67,5.25-18.49-5.06,2.73-10.14,5.47-15.04,8.12,3.23,3.42,6.5,6.88,9.79,10.37Zm-34.55-51.36h31.1c-.12-1.62-.23-3.02-.35-4.57-7.42-.37-14.53-.68-21.64-1.11-4.09-.25-7.02,1.31-9.11,5.67Zm54.95-20.89c1.01,11.59,3.35,13.63,16.35,13.61-5.9-4.92-10.93-9.1-16.35-13.61Zm10.25,25.68h-18.89c-.03.26-.06.51-.1.77,4.87,1.55,9.73,3.1,14.82,4.72,1.35-1.78,2.58-3.4,4.17-5.49Z"/>
  <path d="m126.17,126.19c-.78-1.21-2.3-2.46-2.24-3.63.84-15.88,1.9-31.76,2.92-47.8,2.79-.94,4.16-.45,3.97,2.71-.97,15.88-1.89,31.77-2.82,47.66-.61.36-1.22.72-1.83,1.07Z"/>
  <path d="m53.94,103.76c.41,6.6.89,13.19,1.14,19.79.03.7-1.26,1.99-1.99,2.03-.7.04-2.03-1.15-2.1-1.9-.52-5.8-.94-11.63-1.04-17.45-.02-1.06,1.56-2.15,2.4-3.23.53.25,1.06.5,1.59.76Z"/>
</svg>