<?xml version="1.0" encoding="UTF-8"?>
<svg id="_레이어_1" data-name="레이어 1" xmlns="http://www.w3.org/2000/svg" viewBox="0 0 149.97 157.98">
  <path d="m102.33,140.34H24c-.77-8.24-1.54-16.31-2.27-24.39-.48-5.31-.58-10.67-1.42-15.91-.55-3.42-2.19-6.65-3.2-10.02-.61-2.05-1.21-4.15-1.37-6.27-1.4-18.26-2.7-36.53-4.01-54.8-.44-6.07,1.83-8.55,8.05-8.57,17.32-.05,34.65.07,51.97-.16,2.11-.03,4.77-1.23,6.22-2.79,11.33-12.14,29.37-12.71,40.34-1.02,10.88,11.58,9.42,29.42-3.07,39.89-1.43,1.2-2.61,3.35-2.84,5.19-.84,6.77-1.27,13.59-1.78,20.4-.28,3.79.08,7.67-3.46,10.5-.78.63-.74,2.44-.86,3.73-1.34,14.58-2.63,29.16-3.98,44.22Zm-28.78-115.77c-18.45,0-36.25-.05-54.04.1-1.29.01-2.56,1.47-3.84,2.25.25.55.5,1.1.74,1.65,1.79,0,3.57,0,5.36,0,13.81.01,27.63-.04,41.44.13,1.37.02,2.72,1.33,4.08,2.04-1.41.68-2.82,1.92-4.24,1.94-12.98.15-25.96.09-38.94.09-2.45,0-4.89,0-7.78,0,.62,8.59,1.19,16.49,1.76,24.36h64.86c-10.29-9-13.58-19.42-9.39-32.56Zm-35.16,68.58c.99,10.69,1.93,20.87,2.92,31.49,6.71.47,12.93.91,19.47,1.37v-32.86h-22.38Zm27.18,32.37c3.05,0,5.84.11,8.62-.02,10.48-.47,10.48-.5,11.71-10.65.1-.83.24-1.65.31-2.48.51-6.38,1-12.76,1.49-19.09h-22.13v32.24Zm36.59-32.57c-2.48,0-4.65-.29-6.68.11-1.27.25-3.25,1.44-3.36,2.39-1.07,9.19-1.82,18.41-2.71,28.2,2.54-.75,4.6-1.01,6.27-1.94,1.68-.94,4.06-2.42,4.26-3.91,1.04-8.02,1.5-16.12,2.22-24.84Zm-78.07.26c.68,7.81,1.54,15.08,1.87,22.38.17,3.81,1.69,5.8,5.3,6.5,1.62.31,3.2.78,5.54,1.37-.91-10.29-1.79-20.15-2.69-30.24h-10.02Zm8.57-10.27c12.01-5.86,14.39-5.97,28.15-1.46v-8.83h-28.71c.19,3.51.36,6.66.56,10.29Zm60.78.31c.3-3.85.56-7.22.81-10.54h-28.71v9.19c9.61-5.02,18.76-4.92,27.9,1.35Zm-32.59-21.16h-29.57c.16,2.08.29,3.79.42,5.5h29.15v-5.5Zm4.81-.13v5.65h28.93c.14-1.99.26-3.7.39-5.65h-29.33Zm-4.79,68.45c-6.65-.49-12.81-.94-19.35-1.43.41,2.83.73,5.03,1.02,7.03h18.33v-5.6Zm4.68,5.67h18.35c.2-2.32.38-4.52.61-7.14-6.68.54-12.84,1.04-18.96,1.53v5.61Zm33.42-95.54c-2.09,6.09-3.82,11.13-5.89,17.17,5.02-.39,9.07-.7,13.81-1.07-2.85-5.8-5.15-10.48-7.92-16.1Zm-10,15.81c2.14-6.28,3.87-11.34,5.88-17.22-5.73,2.79-10.47,5.09-16.11,7.84,3.46,3.18,6.42,5.89,10.22,9.39Zm4.16-21.19c-6.23-2.09-11.22-3.77-17.18-5.77.31,4.84.57,8.83.88,13.68,5.73-2.78,10.42-5.05,16.3-7.91Zm-32.91,53.14c-7.3-7.85-20.36-7.49-24.34,0h24.34Zm31.12,0c-7.5-7.85-20.64-7.44-24.4,0h24.4Zm7.87,37.36c-11,1.98-11.11,2.09-10.37,10.42h9.46c.32-2.61.65-5.04.89-7.47.1-.96.02-1.94.02-2.95Zm-61.9,10.46q.87-8.34-10.3-10.51c.32,3.61.62,7.08.92,10.51h9.37ZM91.19,12.89c.9,5.43,2.77,8.45,8,7.48,4.63-.86,3.4-4.63,4.44-8.2-4.41.26-8.14.47-12.45.72Zm28.38,27.67c.62-.36,1.23-.72,1.85-1.07-.31-4-.62-8-.92-11.79-6.74.1-6.82,4.49-6.16,8.08.34,1.85,3.4,3.2,5.24,4.78Zm-20.94,31.96c-.2,3.19-.36,5.8-.52,8.53q9.13-2.18,8.31-8.53h-7.79Zm-78.99,5.69c2.99.91,5.63,1.71,8.75,2.67-.32-2.99-.59-5.56-.87-8.27h-8.15c.09,1.97.17,3.6.27,5.61Zm-1.15-16c.13,1.96.25,3.69.37,5.37h8.25c-.01-6.36-.09-6.41-8.61-5.37Zm75.07-31.43c-1.86-6.52-6.86-8.16-14.93-5.09,5.12,1.75,9.86,3.36,14.93,5.09Zm12.81-11.34c3.96,1.76,7.25,3.23,10.54,4.7.36-.68.73-1.36,1.09-2.04-3.08-2.66-6.16-5.33-9.69-8.38-.92,2.7-1.44,4.24-1.94,5.72Zm-6.84,42.58c-.12,1.98-.23,3.73-.34,5.68h8.13v-5.68h-7.79Zm20.06-17.51c-2.38-.84-4.01-1.41-6-2.11-.2,3.35-.38,6.19-.55,9.04.35.11.71.23,1.06.34,1.7-2.26,3.4-4.51,5.49-7.27Zm-16.65-5.75c2.02,4.13,3.46,7.08,4.9,10.02.33-.11.65-.22.98-.33.18-2.44.36-4.88.56-7.53-1.92-.65-3.59-1.2-6.44-2.16Zm2.92,44.04c-3.19,1.78-5.68,3.18-8.17,4.57,8.1,1.67,8.25,1.59,8.17-4.57Zm-77.18,3.98c-2.55-1.28-5.1-2.55-8.04-4.02-.17,6.21.35,6.5,8.04,4.02ZM111.17,26.4c-6.11-3.1-6.98-2.59-7.89,3.82,2.47-1.2,4.74-2.3,7.89-3.82Z"/>
</svg>