<?xml version="1.0" encoding="UTF-8"?>
<svg id="_레이어_1" data-name="레이어 1" xmlns="http://www.w3.org/2000/svg" viewBox="0 0 154.55 147.68">
  <path d="m102.14,34.52c3.04.18,5.65.33,8.84.52-.73,35.13-1.45,69.99-2.18,105.16h-49.35c-.15-1.1-.42-2.21-.44-3.31-.68-32.29-1.35-64.59-1.97-96.88-.04-2.12-.2-3.81,2.16-5.82,2.49-2.12,3.22-6.66.34-9.99-3.47-4.01-7.19-7.81-11.11-12.02.45-.67,1.15-1.69,2.21-3.25,4.09,3.89,7.92,7.52,11.99,11.38,3.22-5.7,7.58-10.7,14.4-11.63,4.27-.58,9.12-.33,13.12,1.16,9.4,3.49,13.51,12.54,11.99,24.69Zm-39.18,17.18c0,23.49-.01,46.43.01,69.37,0,4.03,2.65,4.88,6.05,4.87,9.65-.04,19.3.01,28.95-.02,6.05-.02,6.86-.86,6.99-6.92.46-21.46.91-42.91,1.34-64.37.02-.94-.27-1.89-.42-2.84h-15.48c-.98,9.47-7.08,14.92-15.3,13.93-7.37-.89-8.78-2.68-7.95-10.07.14-1.24.22-2.49.34-3.95h-4.53Zm-1.22-4.16c2.81-.36,5.9.17,7.42-1.13,5.23-4.47,11.15-4.5,16.21-1.59,6.92,3.98,13.75,1.71,20.96,2.47v-7.91h-44.59v8.16Zm1.62,88.55h41.04v-6.03h-41.04v6.03Zm12.21-74.64c1.33-4.72,2.56-9.09,3.82-13.58-4.35-.81-7.38.12-7.41,4.8-.02,3.14-3.57,7.87,3.59,8.78Zm4.1-26.92c-.24-4.76-2.94-6-6.41-5.43-3.31.54-7.62.09-8.87,5.43h15.28Zm18.54-2.49c-.22-.42-.44-.84-.66-1.26-3.73,0-7.46-.11-11.18.08-.81.04-1.57,1.13-2.35,1.74.67.7,1.3,1.96,2.01,2.02,3.1.22,6.25.32,9.34-.03,1.03-.11,1.91-1.67,2.85-2.56Zm-14.03-20.07v10.3c2.42-2.31,4.7-4.5,7.44-7.11-2.37-1.01-4.65-1.99-7.44-3.19Zm-4.67,10.61v-10.67c-2.8,1.27-5.05,2.28-7.17,3.24,2.52,2.61,4.63,4.8,7.17,7.43Zm15.99-3.48c-2.74,2.76-4.87,4.89-7.05,7.08h10.01c-1.12-2.69-2.02-4.83-2.95-7.08Zm-11.23,28.59c-1.54,4.85-2.67,8.4-4.07,12.79,6.51-3.21,6.83-4.19,4.07-12.79Zm-19-21.37c3.62-.86,6-1.42,8.25-1.95-1.54-1.88-3.01-3.69-4.99-6.12-1.25,3.1-2.07,5.13-3.26,8.07Z"/>
  <path d="m83.15,121.79c-4.54.03-13.94-7.08-14.41-10.9-.91-7.41,4.47-14.49,11.99-15.76,4.57-.78,17.41,8.32,17.33,12.28-.1,5.29-9.49,14.35-14.91,14.38Zm5.74-7.06c1.73-2.7,3.22-5.03,4.95-7.73-3.33-2.37-6.38-4.55-9.43-6.71-3.82,5.08-3.07,7.55,4.47,14.44Zm-5.74,3.33l.85-1.08q-5.25-8.2-9.75-4.58c3.08,1.96,5.98,3.81,8.89,5.66Z"/>
  <path d="m75.03,82.58c-.26-5.3,1.25-11.14,5.89-12.62,4.92-1.56,10.91.02,16.38.63.93.11,2.31,2.24,2.33,3.46.08,4.36.1,8.81-.66,13.08-.89,4.97-4.29,6.66-9.24,5.19-1.72-.51-3.57-.81-5.36-.83-8.41-.1-9.05-.67-9.34-8.92Zm4.67,4.44c3.5.28,6.65.31,9.72.82,4.76.78,4.74.92,5.95-4.42-5.16-1.35-10.31-2.7-16.1-4.21.18,3.25.3,5.51.43,7.81Zm16.24-7.79c-.79-6.33-8.36-8.19-14.53-4.22,4.91,1.43,9.37,2.72,14.53,4.22Z"/>
</svg>