<?xml version="1.0" encoding="UTF-8"?>
<svg id="_레이어_1" data-name="레이어 1" xmlns="http://www.w3.org/2000/svg" viewBox="0 0 184.31 156.84">
  <path d="m37.6,39.78c3.91-.83,6.43-3.32,10.98-1.25,3.54,1.61,8.9-.87,13.47-1.41.87-.1,1.82.36,2.73.61,1.51.41,3.26,1.59,4.48,1.18,6.41-2.14,12.7.55,19.01.06,2.15-.17,4.22-1.16,6.36-1.57,1.04-.2,2.22-.08,3.25.19.72.19,1.78,1.36,1.88,1.27,3.88-3.81,8,1.31,12.39-.32-.56-6.32-1.15-12.57-1.65-18.83-.6-7.51,2-9.93,9.5-9.58,37.74,1.77,46.33,30.03,46.11,53.63-.05,5.15-3.27,7.1-8.92,6.63-9.39-.78-18.8-1.23-28.65-1.84-.6,12.68-1.16,24.3-1.7,35.92-.44,9.48-.78,18.97-1.28,28.45-.38,7.13-3.22,9.78-10.4,9.79-21.15.02-42.31.03-63.46,0-6.1-.01-9.52-2.63-9.79-8.27-1.54-31.43-2.88-62.87-4.3-94.64Zm7.3,69.89c.15,2.83.28,5.8.47,8.77.47,7.13,2.91,9.57,9.92,9.59,18.83.05,37.66.05,56.49.01,7.32-.01,9.8-2.34,10.17-9.85.76-15.31,1.36-30.63,1.99-45.94.04-1.08-.26-2.18-.39-3.17-3.09-.48-5.83-.9-8.53-1.31-.4-2.85-.73-5.26-1.06-7.63H42.76c.66,14.91,1.31,29.46,1.95,43.81,4.92.88,10.13,3.55,13.47,2.05,7.54-3.38,14.42,1.38,21.54-.03.61-.12,1.63,1.8,3.27,3.71h-38.09ZM112.69,44.41H42.1c.2,3.44.42,7.17.65,11.04h71.01c-.4-4.07-.76-7.79-1.07-11.04Zm-66.4,87.2c-.33,5.81.62,6.95,6.89,6.96,20.32.02,40.63.02,60.95,0,6.3,0,7.22-1.08,6.98-6.97-24.95,1.43-49.86,1.4-74.82,0Zm97.76-67.01c.36-21.72-12.39-36.11-28.22-32.12.33,2.06.66,4.13,1.08,6.74h12.28v25.38h14.86Zm15.21,2.76c1.29-2.01,2.5-3.03,2.51-4.06.13-13.49-2.27-26.31-11.8-36.61-8.62-9.32-19.93-12.22-32.18-12.12-1.05,0-2.08,1.45-3.12,2.22.98.6,1.9,1.38,2.95,1.76.91.32,1.98.16,2.97.25,18.62,1.75,31.59,12.08,35.76,29.04,1.42,5.77,1.79,11.79,2.91,19.52Zm-5.91-1.76c4.08-23.78-14.36-44.23-37.75-42.46q.04,4.04,4.22,4.43c14.96,1.38,24.12,9.31,27.34,24.01.85,3.88.97,7.91,1.46,11.87.06.46.33.88.55,1.47,1.3.21,2.59.42,4.19.68Zm-35.31-10.2h6.69c.19-4.04.36-7.76.53-11.53h-8.18c.35,4.11.65,7.71.97,11.53Zm-.31,4.57c1.21,1.96,1.69,3.52,2.73,4.2.88.57,2.42.12,4.08.12-.12-1.62-.22-2.96-.32-4.32h-6.49Z"/>
  <path d="m50.41,80.59c-.6-4.55.91-7.15,4.33-8.83,1.77-.87,3.54-1.91,4.98-3.24,2.82-2.58,5.43-6.25,9.74-3.81,5.26,2.97,11.77,4.72,12.37,12.79.68,9.21-4.63,19.21-13.26,22.1-2.03.68-5.41.16-7-1.19-5.75-4.87-12.51-9.41-11.16-17.82Zm4.89,4.24c-.28.7-.56,1.41-.83,2.11,3.11,2.62,6.11,5.39,9.38,7.77.93.68,3.01.79,3.99.21,2.38-1.43,4.67-3.2,6.51-5.27,1.02-1.14,1.97-3.78,1.37-4.64-1.43-2.05-4.06-5.07-5.75-4.8-5.01.79-9.79,2.98-14.67,4.62Zm-.92-4.62c4.93-1.47,8.97-2.68,13.2-3.95-.79-2.61-1.43-4.73-2.57-8.5-2.02,6.51-9.89,5.59-10.64,12.45Zm22.93.41c.5-6.14-1.86-8.64-7.22-8.75,2.18,2.64,4.36,5.28,7.22,8.75Z"/>
  <path d="m118.52,94.49c-.38,7.27-7,19.32-15.8,19.21-5.42-.07-11.36-4-15.96-7.61-3.19-2.51-.86-14.38,2.49-17.71,4.44-4.43,9.24-7.63,15.93-4.23,2.49,1.27,5.33,1.83,8,2.75,4.56,1.57,5.29,2.63,5.34,7.6Zm-10.02,12c1.08-1.63,1.66-2.42,2.15-3.26,4.91-8.54,6.61-11.53-5.15-14.44-.64-.16-1.31-.33-1.89-.64-4.29-2.28-7.55-.69-9.89,2.01,4.87,5.38,9.6,10.61,14.78,16.33Zm-16.73-11.13c-.69.22-1.37.43-2.06.65.46,2.92-.09,7.24,1.6,8.47,3.49,2.53,7.31,6.18,13.55,4.7-4.79-5.05-8.94-9.43-13.1-13.82Z"/>
  <path d="m62.97,115.15c7.26.32,14.52.63,22.68.99-.05-.13.42,1,.92,2.17-4.82,2.84-9.47,3.36-14.53,1.49-1.75-.65-3.88-.22-5.76-.63-1.38-.3-2.63-1.17-3.95-1.79.21-.74.42-1.49.63-2.23Z"/>
  <path d="m88.03,71.61c2.73,0,5.6-.54,8.16.12,4.08,1.06,7.89,2.32,12.06.24.68-.34,2.27,1.12,4.18,2.15-5.23,3.25-9.41,4.28-14.24,2.68-2.28-.75-4.86-.57-7.25-1.07-1.3-.27-2.48-1.06-3.72-1.62.27-.83.54-1.67.81-2.5Z"/>
</svg>