<?xml version="1.0" encoding="UTF-8"?>
<svg id="_레이어_1" data-name="레이어 1" xmlns="http://www.w3.org/2000/svg" viewBox="0 0 127.35 160.27">
  <path d="m12.84,24.18c20.98,0,40.95.07,60.92-.12,1.89-.02,4.43-1.19,5.54-2.67,5.84-7.78,17.35-10,25.99-4.63,8.44,5.25,11.23,15.43,6.39,24.92-4.41-1.45-8.97-2.8-13.41-4.47-2.44-.92-3.81-.44-5.33,1.7-8.19,11.54-16.75,22.83-24.7,34.54-2.12,3.12-3.49,7.33-3.61,11.1-.43,13.15-.27,26.32-.14,39.48.08,8.36.97,9.26,8.93,11.97,4.24,1.45,8.49,2.96,12.54,4.86,1.58.74,2.63,2.64,3.92,4-.28.39-.57.78-.85,1.17H26.19c1.87-2.25,2.82-4.38,4.41-5.1,4.82-2.2,9.79-4.26,14.9-5.62,4.53-1.21,6.45-3.94,6.48-8.18.1-14.99.27-29.99-.14-44.98-.09-3.21-1.96-6.73-3.91-9.48-10.31-14.53-20.9-28.86-31.39-43.27-1.06-1.45-2.07-2.93-3.7-5.23Zm16.31,14.83c6.7,9.27,12.75,17.76,18.98,26.12.77,1.04,2.42,1.7,3.78,1.99,8.71,1.86,16.11,1.09,21.2-7.95,3.92-6.96,9.26-13.13,14.34-20.16H29.15Zm-7.24-10.42c1.68,4.41,4.18,6.11,8.77,6.04,18.45-.27,36.91-.27,55.36,0,4.61.07,7-1.75,8.66-6.04H21.91Zm38.35,105.11c0-13.12,0-25.75,0-38.38,0-4.17.12-8.34-.1-12.49-.05-.89-1.32-1.71-2.04-2.56-.62.78-1.53,1.48-1.79,2.37-.31,1.08-.08,2.31-.08,3.48,0,15.77,0,31.55,0,47.58h4.01Zm-18.89,8.3h34.13c-11.34-5.25-22.72-5.19-34.13,0Zm59.92-109.27c.02.36.04.72.06,1.08,2.59.84,5.18,1.69,8.16,2.66v-6.92c-3.18,1.23-5.69,2.21-8.21,3.18Zm-37.86,41.19c-.29-.57-.58-1.14-.87-1.71h-8.88c-.21.47-.41.95-.62,1.42,1.71.81,3.41,2.21,5.14,2.26,1.72.05,3.49-1.26,5.23-1.97Zm35.77-54.27c-.28-.4-.56-.79-.84-1.19h-6.67c1.5,2.21,2.69,3.95,3.87,5.68,1.21-1.5,2.42-2.99,3.64-4.49Zm8.71,5.68c-1.64-1.79-2.87-3.13-4.91-5.35-.8,3.13-1.33,5.21-2.12,8.29,3.03-1.27,4.77-1.99,7.03-2.94Z"/>
  <path d="m55.38,61.13c-1.92,2.69-3.31,2.99-5.1.38-3.82-5.58-7.87-11.02-12.01-16.78.99-.86,1.91-1.67,3.2-2.79,4.71,6.5,9.22,12.73,13.91,19.19Z"/>
</svg>