<?xml version="1.0" encoding="UTF-8"?>
<svg id="_레이어_1" data-name="레이어 1" xmlns="http://www.w3.org/2000/svg" viewBox="0 0 142.07 160.27">
  <path d="m23.1,34.53c11.11,0,21.58-.08,32.04.05,2.92.04,4.87-.74,6.62-3.26,5.39-7.74,13.19-12.58,21.47-16.66,2.99-1.47,5.96-1,7.99,1.87,2.97,4.2,6.5,8.24,8.41,12.91,1.84,4.52,4.47,5.54,8.66,5.09,1.63-.17,3.3-.03,5.57-.03.09,1.98.3,3.73.22,5.46-1.33,32.78-2.71,65.55-4.03,98.33-.24,6.04-2.1,8.07-8.17,8.07-22.15.03-44.31.03-66.46,0-6.3,0-7.97-1.79-8.22-7.91-1.34-32.95-2.74-65.89-4.1-98.83-.06-1.47,0-2.94,0-5.1Zm84.16,28.4c-2.09.73-5.45.85-6.73,2.55-3.45,4.55-5.37,9.74-2.49,15.68,1.36,2.8,1.87,6.02,2.71,9.07,2.27,8.18.39,15.84-3.25,23.16-.57,1.14-2.13,2.08-3.43,2.52-6.14,2.08-12.27,5.14-18.56,5.6-7.39.54-14.95-1.24-22.43-2.01-8.54-8.8-16.51-17.96-17.35-31.03-.3-4.65-.05-9.33-.28-13.98-.2-3.97,1.6-6.22,5.26-7.37,2.55-.81,5.04-1.83,7.55-2.76-.09-.18-.18-.37-.26-.55h-19.06c-.21.66-.42.98-.4,1.28.95,20.63,1.92,41.25,2.87,61.88.18,3.93,2.58,5,6.03,5,20.82-.02,41.64-.04,62.46.02,3.85.01,5.81-1.35,5.95-5.49.3-8.65,1.18-17.29,1.36-25.94.24-12.11.06-24.23.06-37.62Zm-49.59,43.75c0,.19-.06,1.19.13,2.15.35,1.8.74,3.6,1.3,5.33.96,2.95,5.14,4.08,7.58,2.16,4.53-3.57,9.14-7.04,13.55-10.75,1.02-.86,1.26-2.59,2.02-3.83,2.57-4.2,4.33-9.64,8.05-12.23,5.19-3.6,4.43-6.69,2.29-11.12-3.41,2.8-6.66,5.35-9.78,8.05-5.35,4.64-11.1,5.55-17.55,2.46-.96-.46-2.55-.34-3.56.13-6.42,3.01-6.54,3.45-4.03,12.99,5.9-1.59,11.79-3.18,18.3-4.94.08.11.77,1.12,2.38,3.46-7.33,2.18-13.86,4.12-20.7,6.15Zm-29.42-47.66h23.91c1.4-6.82,2.72-13.27,4.06-19.77h-28.88c.31,6.75.6,13.03.91,19.77Zm77.03,76.82H31.83c-.73,6.31-.73,6.33,5.3,6.33,21.11,0,42.23-.12,63.34.09,5.06.05,6.16-1.85,4.81-6.42Zm-9.58-77.13c.27.28.53.57.8.85.68-1.01,1.73-1.93,1.97-3.03,2.37-10.71,1.35-21.01-5.28-30.03-7.9-10.74-4.55-10.32-16.12-3.38-12.05,7.23-18.79,18.12-19.64,32.32-.07,1.22.82,2.49,1.27,3.74.59-1.1,1.66-2.18,1.71-3.3.52-12.06,6.11-21.22,15.78-28.08,5.63-3.99,13.19-2.28,16.33,3.81,1.36,2.63,2.82,5.51,3.04,8.37.46,6.21.14,12.48.14,18.73Zm-41.33,56c-4.12-28.67-6.25-34.33-14.07-38.37-2.96,15.18,3.27,27.26,14.07,38.37Zm10.72-55.4c2.4,0,4.56.22,6.66-.08,1.24-.18,3.19-.96,3.42-1.83,2.32-8.94,4.35-17.95,6.54-27.31-10.93,4.7-17.99,17.05-16.61,29.22Zm5.99,57.58c.29.53.58,1.07.87,1.6,6.89-2.18,13.79-4.34,20.66-6.56.57-.19,1.23-.71,1.47-1.25,2.81-6.36,4.79-12.83,2.2-20.19-6.65,3.23-8.72,8.91-10.78,14.75-.6,1.7-2.18,3.26-3.68,4.39-3.46,2.58-7.14,4.86-10.74,7.26Zm15.15-86.97c-2.5,10.46-4.68,19.58-7.02,29.36,3.44,0,6.4.15,9.32-.09.83-.07,2.03-1.15,2.27-1.99,2.53-9.18,2.24-17.99-4.57-27.28Zm9.95,34.45c-.47-.39-.95-.77-1.42-1.16-1.11,1.08-2.23,2.14-3.31,3.24-4.51,4.61-8.74,9.52-13.58,13.76-4.1,3.6-8.62,2.49-11.05-2.33-1.94-3.84-3.25-7.99-5.07-11.9-.5-1.08-1.84-1.77-2.8-2.64-.63.52-1.27,1.03-1.9,1.55,2.76,5.96,5.28,12.05,8.38,17.83,2.1,3.92,7.61,5.19,11.23,2.47,5.15-3.86,10.03-8.14,14.58-12.69,2.18-2.18,3.32-5.4,4.93-8.15Zm-42.69,2.83c-3.6,1.27-7.12,2.52-10.48,3.7,4.32,5.76,8.37,11.16,12.58,16.79,1.55-1.01,3.44-2.23,5.07-3.29-2.47-5.94-4.7-11.28-7.17-17.2Zm55.69-8.11v-19.76h-5.97v19.76h5.97Zm-32.46,17.42c3.73-3.97,7.47-7.95,12.03-12.81-11.98.02-10.19-3.38-12.03,12.81Zm-6.84-1.51c.41-.07.81-.14,1.22-.22.84-3.57,1.68-7.14,2.54-10.8h-8.16c1.63,4.09,3.02,7.55,4.4,11.01Z"/>
</svg>