<?xml version="1.0" encoding="UTF-8"?>
<svg id="_레이어_1" data-name="레이어 1" xmlns="http://www.w3.org/2000/svg" viewBox="0 0 127.35 151.11">
  <path d="m38.18,10.62h35.76c.51,7.08,1.08,14,1.5,20.92.59,9.64,1.37,19.27,1.52,28.92.13,8.86-3.24,16.12-9.9,22.53-2.98,2.87-4.08,8.6-4.39,13.15-.65,9.45-.21,18.97-.2,28.46,0,4.11,1.64,6.91,5.92,8.03,2.72.71,5.46,1.69,7.85,3.12,1.27.76,2.51,2.76,2.45,4.15-.04,1.01-2.2,2.77-3.43,2.79-12.65.21-25.31.23-37.95-.01-1.29-.02-3.16-1.88-3.58-3.25-.28-.92,1.25-2.98,2.46-3.64,2.6-1.42,5.45-2.5,8.32-3.3,3.37-.94,5.3-3.1,5.28-6.36-.08-13.09,1.94-26.29-1.72-39.21-.42-1.49-1.26-3.18-2.44-4.1-6.86-5.33-10.2-12.57-9.98-20.87.44-16.93,1.64-33.85,2.55-51.32Zm4.31,21.49c-.52.55-1.05,1.1-1.57,1.64,1.43,5.47-4.25,11.9,2.8,16.62-.43,6.34,5.02,7.64,8.91,8.58,7.34,1.78,9.23,6.12,9.53,12.87.16,3.49-.62,4.59-3.83,4.42-4.63-.25-9.25-.49-13.61-.72,5.94,8.07,15.71,8.63,22.61,1.02,2.05-2.26,3.69-4.4.44-6.81,6.11-6.07,6.61-9.97,3.03-15.86.66-3.39,1.16-5.94,1.84-9.44-11.17,4.12-18.38,1.06-23.31-8.55-.98-1.92-4.49-2.55-6.83-3.77Zm16.5,98.14v-44.08h-5.56v44.08h5.56ZM42.03,21.28c4.35-.72,7.86-1.31,11.38-1.88,1.1-.18,2.26-.61,3.31-.44,4.35.69,8.68,1.57,13.66,2.51-.24-3.12-.37-4.83-.5-6.57h-27.37c-.14,1.89-.27,3.49-.49,6.38Zm-1.96,36.21c-1.9,10.42,2.9,12.5,13.16,14.9,1.19.28,4.1-1.49,4.03-1.99-.3-2-.93-4.75-2.39-5.63-4.62-2.77-9.67-4.83-14.79-7.27Zm30.99,80.96c-10.4-5.24-19.37-5.12-29.68,0h29.68Zm-5.21-96.91c-6.1-9.3-6.32-9.44-12.13-7.66,3.93,7.79,4.92,8.44,12.13,7.66Zm5.07-12.58c-.74-4.5-2.98-5.1-10.08-3.29,1.9,5.5,6.29,2.33,10.08,3.29Zm.25,4.05c-2.07.16-3.55.28-5.96.47,2.35,2.61,4.01,4.45,5.67,6.28.31-.16.61-.32.92-.48-.19-1.87-.37-3.74-.62-6.28Zm-16.98-10.57c-1.76,2.21-2.91,3.65-4.06,5.09,2.12.59,4.23,1.17,7.5,2.08-1.36-2.82-2.04-4.25-3.44-7.17Z"/>
</svg>