<?xml version="1.0" encoding="UTF-8"?>
<svg id="_레이어_1" data-name="레이어 1" xmlns="http://www.w3.org/2000/svg" viewBox="0 0 121.35 153.4">
  <path d="m7.19,18.3c10.89,0,21.52,0,32.14,0,6.33,0,12.67.18,18.99-.13,1.56-.08,3.69-1.4,4.46-2.76,3.08-5.45,5.17-6.64,11-5.8,5.18.75,3.74,5.05,4.62,8.2,3.96,1.51,5.67.11,6.29-4.02.32-2.17-.84-5.76,3.63-5.82,6.15-.07,11.03,1.96,12.11,5.87,1.37,4.97,3.14,10.03,3.23,15.07.05,3.17-2.21,6.76-4.4,9.36-.78.93-4.37-.51-7.25-.95-.31.86-.93,2.48-1.49,4.13-4.95,14.65-14.17,25.17-29.3,29.62-3.73,1.1-4.91,2.81-4.86,6.64.21,15.33.22,30.66-.02,45.99-.06,3.84,1.25,5.24,4.87,5.79,5.09.78,10.2,1.79,15.1,3.33,1.89.59,3.25,2.91,4.85,4.44-1.8,1.08-3.58,3.07-5.39,3.09-17,.24-34,.25-50.99-.02-1.88-.03-3.72-2.27-5.58-3.49,1.61-1.39,3.02-3.53,4.88-4.04,6.41-1.73,12.97-2.89,19.98-4.38,0-3.62,0-7.06,0-10.5,0-13.67-.1-27.33.08-41,.04-3.24-1.08-4.56-4.09-5.61C17.77,63.64,4.83,42.98,7.19,18.3Zm9.62,27.29c.11.74.07,1.25.26,1.66,6.22,13.86,18.76,18.9,32.06,22.81,1.06.31,2.45.3,3.45-.13,6.38-2.73,12.97-5.14,18.95-8.59,5.96-3.44,9.79-9.11,12.62-15.75H16.81Zm-6.27-22.79c1.03,5.54,1.82,10.73,3.09,15.8.27,1.06,2.31,2.39,3.54,2.4,21.98.14,43.97.15,65.95,0,1.45-.01,2.88-1.62,4.49-2.59-6.19-1.19-11.44-1.79-16.39-3.33-2.5-.78-4.09-.85-6.31.55-5.67,3.59-10.52,2.32-14.07-3.18-1.95-3.03-2-5.15,2.07-6.27,1.6-.44,3-1.65,4.49-2.5-.12-.29-.23-.58-.35-.87H10.54Zm41.66,52c-.5-.28-1-.56-1.5-.83-.83,1.12-2.25,2.17-2.38,3.36-.34,3.12-.12,6.3-.12,9.45,0,12.45-.06,24.9.07,37.35.01,1.3,1.14,2.59,1.75,3.89.73-1.34,1.97-2.63,2.09-4.02.3-3.46.1-6.96.1-10.45,0-12.92,0-25.83,0-38.75Zm3.34-42.45c1.75.1,4.33,1.03,6.02.19,5.83-2.91,9.97-7.67,11.74-14.05.38-1.35-.63-3.08-1-4.64-1.72.84-3.98,1.26-5.08,2.61-3.85,4.76-7.3,9.84-11.69,15.88Zm34.17-20.16c-2.09,7.24-4.02,13.9-5.98,20.68,7.52-1.33,10.19-6.15,10.84-19.42-1.47-.38-3.01-.78-4.86-1.26Zm-58.59,123.85h38.13c-13-4.84-25.17-4.77-38.13,0ZM98.48,23.4c-.84,3.54-5.95,6.94-1.92,10.61l1.92.02v-10.63Zm-26.61,6.53c.11.64.21,1.28.32,1.93,2.31-.29,4.62-.59,6.92-.88-1.26-1.7-2.51-3.4-3.99-5.39-1.51,2.02-2.38,3.18-3.25,4.35Z"/>
  <path d="m46.14,64.37c-9.75-2.42-16.63-5.97-22.22-13.43.85-.75,1.75-1.54,1.69-1.48,6.61,3.66,12.35,6.69,17.9,10.03,1.05.63,1.38,2.46,2.63,4.88Z"/>
</svg>