<?xml version="1.0" encoding="UTF-8"?>
<svg id="_레이어_1" data-name="레이어 1" xmlns="http://www.w3.org/2000/svg" viewBox="0 0 160.27 156.84">
  <path d="m112.29,9.16c3.21,5.63,3.16,10.55,1.76,15.74-.47,1.73-.11,3.72.06,5.57.18,1.95.91,3.9.83,5.83-1.11,26.29-2.35,52.57-3.49,78.85-.28,6.49-.33,12.98-.51,19.47-.17,6.09-2.11,8.05-8.16,8.07-11.16.04-22.32.04-33.48,0-6.06-.02-7.96-2.05-8.22-8.04-1.26-28.11-2.59-56.22-3.87-84.34-.16-3.49.07-7.01-.28-10.48-.51-5.15,1.57-8.18,5.25-12.1,5.35-5.71,12.83-6.01,18.47-10.27,1.18-.89,3.43-.42,5.19-.46.62-.01,1.45.65,1.83.42,7.54-4.57,16.97-2.93,24.63-8.26Zm-50.88,38.73c1.32,25.34,2.62,50.12,3.88,74.89.21,4.03,2.33,5.37,6.2,5.31,9.66-.15,19.32-.17,28.98,0,4.48.08,6.24-1.73,6.4-6.16.42-11.15,1.18-22.29,1.75-33.43.69-13.43,1.32-26.86,2-40.62h-49.22Zm49.39-13.27c-2.4-6.74-7.21-8.34-15.44-5.53-.51-.95-1.04-1.93-1.63-3.04,1.4-1.01,2.65-1.91,4.17-3.01-1.84-1.48-3.35-2.69-5.37-4.31-.95,1.63-1.6,2.85-2.36,4-.46.7-1.14,1.85-1.65,1.81-.89-.06-2.26-.7-2.5-1.42-1.28-3.68-3.76-1.99-5.67-1.22-2.3.92-4.54,2.13-3.1,5.59.41.99-.83,2.67-1.31,4.03-.23-.64-.47-1.28-.7-1.92-2.18-.76-5.02-2.74-6.4-2.01-2.68,1.43-4.55,4.39-7.04,7.01h49Zm-4.56,97.54c-13.51,0-27.03,0-40.55.01-.61,6.17-.44,6.38,5.39,6.39,9.98.01,19.96.02,29.94,0,5.89-.01,6.1-.29,5.22-6.4Zm-19.87-92.94c-7.16,0-14.32-.1-21.47.1-1.21.03-2.39,1.35-3.59,2.08,1.16.6,2.32,1.71,3.49,1.72,14.15.12,28.3.14,42.45,0,1.19-.01,2.36-1.35,3.54-2.08-1.15-.61-2.29-1.71-3.45-1.74-6.99-.16-13.98-.08-20.97-.07Zm24.68-24.45c-4.49,1.5-7.75,2.6-12.23,4.09,3.93,2.7,6.8,4.67,10.78,7.41.55-4.36.93-7.38,1.44-11.5Z"/>
  <path d="m73.67,73.64c-5.42-1.46-5.17-5.67-4.32-9.91.84-4.23.13-9.62,5.55-11.28,5.39-1.66,11.22-1.81,15.41,2.57,1.59,1.66,1.33,5.24,1.63,7.98.25,2.31.4,3.92,2.93,5.54,4.7,3.01,4.09,8.41,3.23,13.14-1.54,8.45-3.75,9.77-12.17,8.22-.49-.09-.98-.17-1.48-.23-11.8-1.29-13.34-3.53-10.76-16.04Zm4.16,3.79c-1.01,7.58-1,7.54,5.3,7.7,1.46.04,2.99.29,4.36.8,4.22,1.54,5.57-.56,5.98-4.41-5.3-1.38-10.43-2.72-15.64-4.08Zm3.74-21.37c-6.96.3-8.02,1.59-8.11,9.86-.01,1.15,1.18,2.31,1.81,3.47,1.07-.84,2.71-1.46,3.12-2.55,1.27-3.37,2.08-6.92,3.18-10.78Zm-2.43,17.03c5.3,1.49,9.8,2.76,14.6,4.11-.45-6.12-8.05-8.19-14.6-4.11Zm8.88-6.54c-.28-3.34-.52-6.17-.76-8.99-.4-.04-.8-.09-1.2-.13-1.05,2.92-2.11,5.83-3.3,9.12h5.26Z"/>
  <path d="m83.67,97.12c3.25-.13,15,7.81,16.13,10.96.22.6.34,1.31.27,1.94-.52,4.75-8.4,12.88-13.28,13.77-3.78.69-13.4-4.75-15.42-8.71-3.24-6.38,4.46-17.64,12.29-17.96Zm12.37,12.14c-3.44-2.43-6.51-4.59-9.56-6.74-3.66,4.92-2.06,9.49,4.72,14,1.45-2.18,2.91-4.36,4.84-7.26Zm-10.45,10.93c.23-.35.47-.69.7-1.04-1.83-2.58-3.66-5.17-5.58-7.88-1.69,1.15-2.9,1.97-4.74,3.22,3.48,2.06,6.55,3.88,9.62,5.7Z"/>
</svg>