<?xml version="1.0" encoding="UTF-8"?>
<svg id="_레이어_1" data-name="레이어 1" xmlns="http://www.w3.org/2000/svg" viewBox="0 0 184.31 157.98">
  <path d="m57.25,7.92c1.66,0,3.45,0,5.23,0,26.48,0,52.95.1,79.43-.1,4.39-.03,5.9,1.2,5.73,5.58-.39,10.47-4.57,18.49-12.72,25.35-8.48,7.13-16.61,14.99-23.36,23.71-3.04,3.92-3.09,10.7-3.26,16.21-.42,13.98-.05,27.97-.2,41.96-.03,3.1,1.19,4.38,3.95,5.29,6.47,2.14,12.92,4.38,19.2,7.01,1.56.65,2.44,2.94,3.64,4.47-1.67,1.03-3.33,2.94-5.01,2.96-18.65.21-37.3.21-55.95,0-1.69-.02-3.36-1.93-5.04-2.97,1.23-1.53,2.16-3.8,3.75-4.46,6.44-2.69,13.13-4.74,19.6-7.37,1.43-.58,3.29-2.55,3.28-3.87-.13-17.63-.38-35.26-1.06-52.87-.12-3.02-1.69-6.62-3.78-8.81-7.44-7.79-15.07-15.46-23.23-22.48-8.29-7.13-12.57-17.81-10.19-29.62Zm6.86,17.79c-.26.41-.53.81-.79,1.22,2.53,2.55,4.96,5.21,7.62,7.62,3.94,3.57,8.34,6.67,12,10.49,5.63,5.88,10.69,12.3,16.24,18.26.93,1,3.99,1.71,4.51,1.14,7.42-8.18,14.56-16.61,22.1-25.35-3.4,0-6.54.2-9.64-.09-1.29-.12-2.48-1.29-3.72-1.98,1.17-.75,2.3-2.07,3.52-2.15,3.98-.27,7.98-.09,11.98-.1,6.37,0,9.72-2.53,11.83-9.06h-75.64Zm-2.68-4.59h80.99c.33-2.89.64-5.58.98-8.49H60.41c.37,3.07.68,5.67,1.03,8.49Zm64.26,115.1c-16.11-10.11-31.83-9.93-47.52,0h47.52Zm-25.83-66.13c0,4.1,0,8.05,0,12,0,12.63-.06,25.25.1,37.88.01,1.23,1.31,2.45,2.01,3.68.63-1.26,1.81-2.51,1.82-3.78.12-16.58.08-33.17.08-49.78h-4.01Z"/>
  <path d="m75.33,30.81c.52-1.42,1.98-2.41,4.21-.14,7.43,7.56,14.87,15.1,22.11,22.84.72.76.1,2.78.23,2.64-8.72-8.32-17.44-16.64-26.56-25.34Z"/>
</svg>