<?xml version="1.0" encoding="UTF-8"?>
<svg id="_레이어_1" data-name="레이어 1" xmlns="http://www.w3.org/2000/svg" viewBox="0 0 143.1 156.84">
  <path d="m25.44,16.39h21.57c11,0,21.99-.04,32.99.02,5.28.03,9.98-.32,14.91-3.58,9.52-6.31,23.11-1.83,28.15,8.46,3.77,7.69-.09,14.09-4.04,20.65-1.51-.79-2.76-1.44-4.04-2.11-2.66,18.35-12.82,30.04-29.87,36.09-6,2.13-9.87,7.86-9.88,14.09-.01,7.66-.02,15.33,0,22.99.03,10.5,4.33,15.91,14.57,18.39.81.2,1.64.29,2.45.49,6.26,1.55,7.68,3.75,6.68,10.6-20.07,0-40.18,0-60.29,0-1.71-5.88-.21-8.7,5.53-10.39,3.34-.98,6.98-1.43,9.95-3.07,5.53-3.07,7.89-8.38,7.96-14.62.09-7.83.04-15.66.04-23.49,0-7.61-3.67-12.69-11-15.28-16.23-5.73-28.25-20.39-28.27-35.77-.01-7.59,1.62-15.17,2.58-23.48Zm2.47,14.67c-2.04,10.19.34,18.71,5.82,27.19,11.47,17.75,42,16.11,56.19,11.06.1-.04.13-.29.45-1.09-4.3,0-8.39.15-12.45-.1-1.06-.07-2.05-1.4-3.07-2.14,1.05-.7,2.07-1.97,3.14-2.01,5.65-.21,11.32,0,16.98-.17,1.53-.04,3.48-.41,4.49-1.4,8.81-8.58,12.87-18.75,9.9-31.33H27.91Zm1.59-10.15c-.33,2.02-.6,3.72-.89,5.45h58.29c.23-1.94.41-3.55.64-5.45H29.51Zm12.09,117.24h53.53c-.99-.84-1.31-1.33-1.7-1.4-9.79-1.76-18.23-5.25-21.93-15.7-.2-.58-4.89-.71-5.93.4-2.1,2.25-3.13,5.51-4.65,8.45q9.69.82,8.91,4.4c-8.99.87-18.45-1.44-28.22,3.84Zm25.07-53.15v30.5c.4.28.8.55,1.2.83,1.03-1.11,2.91-2.2,2.94-3.34.24-9.28.14-18.58.14-27.99h-4.27Zm49.63-49.18c5.46-8.55,4.8-12.74-1.21-17.64-4.13-3.36-6.34-3.76-9.31-1.31,5.89,2.27,7.61,6.94,7.99,12.67.14,2.14,1.64,4.19,2.53,6.28Zm-20.34-9.29c1.12-3.74,2.17-7.24,3.26-10.89-5.96,2.21-7.76,4.9-7.34,10.89h4.08Zm-34.06,50.26c1.1,4.55,4.57,4.06,7.55,3.7,2.18-.26,4.25-1.46,6.37-2.24l-.53-1.46h-13.39Zm46.19-50.24c.36-.51.73-1.02,1.09-1.53-2.07-1.66-4.14-3.32-7.34-5.88-.33,3.61-.5,5.4-.69,7.41h6.93Z"/>
  <path d="m56.7,68.21c-15.59-2.71-27.53-18.36-24.72-34.53,1.56,1.94,3.18,3.02,3.22,4.15.44,13.2,8.16,20.79,19.42,25.72,3.12,1.36,3.17,1.25,2.08,4.66Z"/>
</svg>