<?xml version="1.0" encoding="UTF-8"?>
<svg id="_레이어_1" data-name="레이어 1" xmlns="http://www.w3.org/2000/svg" viewBox="0 0 127.35 158.07">
  <path d="m43.56,59.17c-9.57-.47-18.85,1.42-26.25-7.41,11.59-3.13,22.17-9.84,33.4-.09.64-4.91-1.56-8.57-5.23-9.61-3.35-.95-6.69-1.94-10.01-3.01-7-2.26-10.19-6.93-10.07-14.81,14.1-2.28,19.7,8.97,26.99,17.49l1.51-.78c-.96-2.93-1.56-6.06-2.95-8.77-3.44-6.67-1.94-12.93,1.19-19.01.41-.8,3.3-1.27,4.21-.66,1.71,1.14,2.81,3.19,4.14,4.84,2.91-1.52,5.71-3.34,8.76-4.48,4.23-1.58,5.74-.34,4.98,4-1.12,6.41-3.61,11.84-9.92,15.18-6.38,3.37-6.42,10.49-8.76,15.64,4.97-2.26,9.7-4.76,14.67-6.58,4.41-1.61,7.58.39,9.84,4.38,1.97,3.48,3.98,7.58,7.13,9.62,6.78,4.38,6.76,10.94,6.12,17.09-1.79,17.21-4.45,34.33-6.68,51.5-.51,3.9-1.94,7.65,1.88,11.37,2.78,2.71-.03,8.51-4.18,8.62-13.15.36-26.32.38-39.47.04-4.55-.12-7.13-6.33-3.92-9.37,2.6-2.46,2.32-4.81,1.96-7.53-2.27-17.16-4.39-34.35-7-51.46-.88-5.8-.93-10.52,5.32-13.16.76-.32,1.16-1.46,2.33-3.04Zm45.13,14.81h-47.97c.31,4.03.44,7.7.9,11.32,1.37,10.72,2.84,21.42,4.34,32.12.34,2.4-.62,5.64,3.41,6.12.08,0,.04,2.46-.26,3.7-.25,1.04-.96,1.96-1.47,2.93.98.42,1.96,1.19,2.95,1.2,9.32.1,18.64.11,27.95.02.94,0,2.23-.65,2.68-1.41.29-.48-.85-1.67-1.04-2.61-.27-1.34-.27-2.73-.38-4.1,3.85-.23,2.99-3.35,3.29-5.58,1.89-14.37,3.69-28.75,5.59-43.72Zm-5.71-16.88c-2.75-2.43-4.88-5.26-9-2.65-.72.46-2.61-.95-4.85-1.84,3.36-2,5.28-3.15,7.22-4.3-2.72-4.16-6.64-4.11-12.14-.55.89,1.35,1.81,2.72,2.87,4.32-5.26.9-9.39,1.6-14.09,2.41,3.42,2.61,5.83,4.45,8.45,6.45-1.37,1.3-2.18,2.06-2.94,2.77-3.51-2.23-6.39-6.03-11.87-2.25,2.72,2.82,4.99,7.29,7.55,7.46,11.55.78,23.18.34,35.34.34-.73-3.23-1.29-5.73-2.07-9.19-3.34,2.14-6.01,3.86-8.78,5.64-.86-.68-1.74-1.38-3.05-2.41,2.7-2.27,4.82-4.06,7.36-6.19Zm-39.13,80.67c3.99,3.11,38.32,2.81,41.1-.09-3.6-2.75-36.82-2.86-41.1.09ZM27.66,52.98c.03.44.06.89.08,1.33h18.97c-6.84-5.84-12.97-2.79-19.05-1.33Zm27.03-20.78c.66-.03,1.33-.06,1.99-.09,2.4-7.06,1.84-10.57-3.45-14.99.56,5.77,1.01,10.42,1.47,15.07Zm-23-4.52c-.4.48-.8.97-1.19,1.45,1.34,6.24,6.97,5.78,11.23,7.46.29-.42.57-.84.86-1.25-3.63-2.55-7.26-5.1-10.9-7.65Zm32.21.4c2.12-3.22,4.24-6.45,6.94-10.56-7.76,2.2-8.99,3.9-6.94,10.56Z"/>
  <path d="m52.68,117.28c-1.04-.87-2.84-1.63-2.99-2.64-1.39-8.96-2.49-17.96-3.66-26.91,2.99-1.6,4.15-.78,4.52,2.13,1.09,8.69,2.31,17.35,3.49,26.03-.45.46-.9.92-1.35,1.39Z"/>
  <path d="m70.3,63.86c-.13-3.75-7.28-.74-5.44-6.08.17-.48,4.2-.27,5.95.61,2.15,1.08,3.66,3.19-.51,5.47Z"/>
</svg>