<?xml version="1.0" encoding="UTF-8"?>
<svg id="_레이어_1" data-name="레이어 1" xmlns="http://www.w3.org/2000/svg" viewBox="0 0 137.49 153.4">
  <path d="m49.38,22.78c2.02-.18,2.86-.4,3.65-.29,5.99.77,10.23-.23,13.16-6.85,2.89-6.53,12.29-9,19.72-7.06,7.34,1.92,12.96,8.56,13.63,16.12.72,8.08-3.22,15.67-10.59,18.62-3.69,1.48-4.4,3.28-4.17,6.96.38,5.95.24,11.97-.21,17.92-.46,6.18-3.52,11.2-7.75,15.79-2.07,2.25-3.82,5.65-3.97,8.62-.5,9.63-.21,19.3-.17,28.95.01,3.88.88,7.14,5.32,8.48,1.82.55,3.59,1.92,4.87,3.36,1.04,1.18,2.16,3.35,1.72,4.49-.48,1.23-2.71,2.46-4.21,2.49-9.32.22-18.64.22-27.96-.01-1.47-.04-3.72-1.4-4.11-2.64-.38-1.18.92-3.2,1.96-4.46,1.02-1.24,2.5-2.45,4-2.87,5.36-1.49,6.04-5.53,6.04-10.09,0-8.99.29-17.99-.16-26.96-.15-3.05-1.38-6.77-3.45-8.87-4.92-5.01-8.42-10.67-8.42-17.54-.01-14.73.68-29.47,1.08-44.17Zm31.28,12.32h-27.96c0,11.44-.48,22.72.19,33.93.37,6.13,3.95,11.45,9.92,14.01,2.12.91,5.36.97,7.41,0,6.98-3.31,10.07-9.63,10.34-17,.37-10.1.09-20.23.09-30.93Zm-16.36,53.79v38.85h4.17v-38.85h-4.17Zm15.14,47.26c-8.22-5.61-20.78-5.21-24.6,0h24.6Zm-12.91-109.88c1.22,4.74,4.74,5.48,13.56,3.5-3.85-5.47-8.93-2.04-13.56-3.5Zm-4.18,4.17c.49-5.7-3.48-3.62-5.69-3.68-1.08-.03-2.2,1.64-3.31,2.54.31.38.63.76.94,1.14h8.06Zm33.03-6.15c-.93-2.22-1.68-4.03-2.09-4.99-2.21,1.62-4.2,3.08-6.81,4.99h8.9Zm-2.27,10.56c.77-2.1,1.4-3.83,2.14-5.89h-8.38c2.19,2.06,3.92,3.7,6.23,5.89Zm-9.42-22.67v7.85c2.12-1.65,4.02-3.12,6.42-4.98-2.6-1.16-4.21-1.88-6.42-2.87Zm-5.21,8.09v-8.06c-2.07.92-3.8,1.68-5.51,2.43,1.9,1.94,3.57,3.64,5.51,5.62Z"/>
  <path d="m60.42,48.09c0,4.29.02,8.57,0,12.86-.03,5.06.5,9.87,4.28,13.84.66.69-.03,2.67-.13,4.96-5.42-3.72-7.58-7.79-7.91-12.53-.4-5.76-.24-11.58,0-17.36.04-1.04,1.65-2.01,2.53-3.01.42.41.83.83,1.25,1.24Z"/>
</svg>