<?xml version="1.0" encoding="UTF-8"?>
<svg id="_레이어_1" data-name="레이어 1" xmlns="http://www.w3.org/2000/svg" viewBox="0 0 149.97 160.27">
  <path d="m121.06,32.96c-3.73,10.83-6.6,21.49-18.32,26.26-1.13.46-1.76,2.14-2.61,3.26-3.48,4.61-6.3,10-10.6,13.63-4.19,3.54-6.05,7.51-6.13,12.4-.22,13.49-.09,26.99-.06,40.48,0,3.72,1.26,6.12,5.62,6.67,5.09.64,10.16,1.89,15.07,3.42,1.56.49,2.59,2.71,3.86,4.14-1.48,1.05-2.96,3-4.45,3.02-17.66.21-35.32.23-52.98-.02-1.54-.02-3.04-2.27-4.57-3.48,1.3-1.26,2.41-3.22,3.95-3.66,5.26-1.52,10.65-2.73,16.05-3.62,2.84-.47,4.41-1.82,4.39-4.42-.13-15.79-.28-31.59-.82-47.37-.07-2.07-2.17-4.25-3.71-6.07-2.99-3.53-6.86-6.46-9.24-10.34-2.69-4.39-4.71-9.08-10.22-10.49-2.72-.7-5.54-1.42-8.32-1.44-9.67-.08-18.05-6.22-20.4-15.32-2.46-9.52,1.78-19.26,10.34-23.74,8.62-4.51,19.17-2.58,25.39,4.86,1.57,1.88,2.83,4.14,3.74,6.42,2.14,5.39,4.66,6.42,9.73,3.54.13-.08.22-.38.31-.37,4.08.31,8.17.64,12.25,1,.93.08,2.34.78,2.67.41,2.33-2.53,4.32-2.17,6.62.04.34.33,1.88-.73,2.91-.96,1.17-.27,2.99-.9,3.48-.38,1.95,2.07,3.15.7,5.25.23,3.83-.85,8.12.25,12.21.66,2.58.26,5.14.73,8.62,1.23Zm-75.96,16.36c3.29,4.6,6.99,6.09,11.7,6.02,11.15-.16,22.31-.12,33.46.01,1.08.01,2.14,1.24,3.21,1.9-1.01.71-1.97,1.96-3.03,2.04-3.31.27-6.65.1-9.98.1-7.55,0-15.1,0-23.77,0,2.3,3.7,3.84,6.41,5.6,8.96,7.44,10.78,21.76,10.81,29.2.11,1.7-2.45,3.44-4.95,4.6-7.67,1.32-3.08,2.26-5.75,6.39-6.33,2.17-.31,4.04-2.76,6.04-4.24-.19-.3-.38-.6-.57-.9h-62.85Zm-5.98-11.56c2.13,7.18,2.13,7.21,9.49,7.21,19.15.01,38.29,0,57.44,0,6.7,0,7.43-.69,8.33-7.21H39.12Zm35.83,96.02h4.01c0-12.01,0-23.76,0-35.51,0-2.33.16-4.67-.11-6.97-.12-1.04-1.13-1.97-1.74-2.95-.71,1.04-1.72,1.98-2.06,3.13-.36,1.22-.1,2.63-.1,3.96,0,12.61,0,25.21,0,38.33Zm20.98,8.19c-12.96-4.75-24.95-4.94-37.8,0h37.8ZM23.64,43.81c2.24,2.04,4.09,3.73,6.44,5.88,1.29-3.83,2.33-6.91,3.66-10.87-3.84,1.9-6.61,3.27-10.1,4.99Zm17.38-25.9c-3.41.34-5.76.58-8.7.87,1.73,3.52,3.1,6.33,4.98,10.17,1.4-4.15,2.39-7.09,3.72-11.04Zm4.11,1.52c-1.35,3.94-2.38,6.96-3.74,10.94,3.89-1.93,6.74-3.34,10.21-5.06-2.37-2.16-4.04-3.67-6.46-5.87Zm-24.08,11.79c.29,3.28.49,5.59.76,8.61,3.6-1.77,6.43-3.16,10.1-4.97-3.99-1.34-6.91-2.32-10.86-3.64Zm1.48-4.16c3.83,1.31,6.71,2.3,10.75,3.68-1.94-3.97-3.32-6.81-5-10.23-2.06,2.34-3.56,4.05-5.75,6.55Zm51.58,53.31c-.34.5-.68,1.01-1.03,1.51,1.34.74,2.69,2.08,4.01,2.04,1.23-.04,2.41-1.54,3.62-2.4-.26-.39-.52-.77-.79-1.16h-5.82Z"/>
</svg>